<svg width="66" height="66" viewBox="0 0 66 66" fill="none" xmlns="http://www.w3.org/2000/svg">
<path d="M33.0003 21.3337C26.5545 21.3337 21.3337 26.5545 21.3337 33.0003C21.3337 39.4462 26.5545 44.667 33.0003 44.667C39.4462 44.667 44.667 39.4462 44.667 33.0003C44.667 26.5545 39.4462 21.3337 33.0003 21.3337ZM59.0753 30.0837C57.7337 17.9212 48.0795 8.26699 35.917 6.92533V0.916992H30.0837V6.92533C17.9212 8.26699 8.26699 17.9212 6.92533 30.0837H0.916992V35.917H6.92533C8.26699 48.0795 17.9212 57.7337 30.0837 59.0753V65.0837H35.917V59.0753C48.0795 57.7337 57.7337 48.0795 59.0753 35.917H65.0837V30.0837H59.0753ZM33.0003 53.417C21.7128 53.417 12.5837 44.2878 12.5837 33.0003C12.5837 21.7128 21.7128 12.5837 33.0003 12.5837C44.2878 12.5837 53.417 21.7128 53.417 33.0003C53.417 44.2878 44.2878 53.417 33.0003 53.417Z" fill="white"/>
</svg>
